<svg xmlns="http://www.w3.org/2000/svg" width="290" height="79.321" viewBox="0 0 290 79.321">
    <defs>
        <style>
            .cls-1{fill:#3bbbc8}
        </style>
    </defs>
    <g id="Icon_Connect" data-name="Icon Connect" transform="translate(-814 -297.202)">
        <g id="Grupo_316" data-name="Grupo 316" transform="translate(814 297.202)">
            <g id="Grupo_314" data-name="Grupo 314">
                <path id="Caminho_355" data-name="Caminho 355" class="cls-1" d="M-1404.453 527.31h-51.9a6.58 6.58 0 0 1-6.592-6.552v-66.217a6.58 6.58 0 0 1 6.592-6.552h51.9a6.579 6.579 0 0 1 6.592 6.552v66.216a6.579 6.579 0 0 1-6.592 6.553zm-51.9-76.272a3.518 3.518 0 0 0-3.524 3.5v66.216a3.518 3.518 0 0 0 3.524 3.5h51.9a3.518 3.518 0 0 0 3.524-3.5v-66.213a3.518 3.518 0 0 0-3.524-3.5z" transform="translate(1462.941 -447.989)"/>
            </g>
            <g id="Grupo_315" data-name="Grupo 315" transform="translate(26.535 33.655)">
                <path id="Caminho_356" data-name="Caminho 356" class="cls-1" d="M-1327.163 625.761a6.012 6.012 0 0 1-6.005-6.005 6.012 6.012 0 0 1 6.005-6.005 6.012 6.012 0 0 1 6.005 6.005 6.012 6.012 0 0 1-6.005 6.005zm0-8.943a2.941 2.941 0 0 0-2.938 2.938 2.941 2.941 0 0 0 2.938 2.938 2.941 2.941 0 0 0 2.938-2.938 2.941 2.941 0 0 0-2.938-2.938z" transform="translate(1333.168 -613.751)"/>
            </g>
        </g>
        <g id="Grupo_319" data-name="Grupo 319" transform="translate(907.127 336.728)">
            <circle id="Elipse_2" data-name="Elipse 2" cx="5" cy="5" r="5" style="opacity:.3;fill:#3bbbc8"/>
            <circle id="Elipse_3" data-name="Elipse 3" cx="5" cy="5" r="5" transform="translate(23)" style="opacity:.4;fill:#3bbbc8"/>
            <circle id="Elipse_4" data-name="Elipse 4" cx="5" cy="5" r="5" transform="translate(47)" style="opacity:.6;fill:#3bbbc8"/>
            <circle id="Elipse_5" data-name="Elipse 5" cx="5" cy="5" r="5" transform="translate(70)" style="opacity:.8;fill:#3bbbc8"/>
            <circle id="Elipse_6" data-name="Elipse 6" class="cls-1" cx="5" cy="5" r="5" transform="translate(94)"/>
        </g>
        <g id="Grupo_317" data-name="Grupo 317" transform="translate(1039.549 297.202)">
            <path id="Caminho_357" data-name="Caminho 357" class="cls-1" d="M-1062.456 578.628h-8.7l10.5-22.781a1.509 1.509 0 0 0-.735-2.014 1.533 1.533 0 0 0-2.03.729l-11.107 24.066h-27.753l-11.107-24.066a1.533 1.533 0 0 0-2.03-.729 1.509 1.509 0 0 0-.735 2.014l10.5 22.781h-8.131a6.544 6.544 0 0 0-6.563 6.51v15.151a6.544 6.544 0 0 0 6.563 6.51h2.365v3.294a1.521 1.521 0 0 0 1.527 1.514 1.521 1.521 0 0 0 1.527-1.514V606.8h40.973v3.294a1.521 1.521 0 0 0 1.527 1.514 1.521 1.521 0 0 0 1.527-1.514V606.8h1.88a6.544 6.544 0 0 0 6.563-6.51v-15.152a6.544 6.544 0 0 0-6.561-6.51zm3.509 21.661a3.5 3.5 0 0 1-3.509 3.481h-51.325a3.5 3.5 0 0 1-3.509-3.481v-15.151a3.5 3.5 0 0 1 3.509-3.481h51.325a3.5 3.5 0 0 1 3.509 3.481z" transform="translate(1120.344 -532.286)"/>
            <path id="Caminho_358" data-name="Caminho 358" class="cls-1" d="M-897.871 719.878a2.183 2.183 0 0 0-2.183 2.183v7.019a2.183 2.183 0 0 0 2.183 2.182 2.183 2.183 0 0 0 2.183-2.182v-7.019a2.183 2.183 0 0 0-2.183-2.183z" transform="translate(944.662 -665.205)"/>
            <rect id="Retângulo_5" data-name="Retângulo 5" class="cls-1" width="4.365" height="11.384" rx="2.183" transform="translate(52.299 54.673)"/>
            <path id="Caminho_359" data-name="Caminho 359" class="cls-1" d="M-935.544 719.878a2.183 2.183 0 0 0-2.182 2.183v7.019a2.182 2.182 0 0 0 2.182 2.182 2.183 2.183 0 0 0 2.183-2.182v-7.019a2.183 2.183 0 0 0-2.183-2.183z" transform="translate(974.706 -665.205)"/>
            <path id="Caminho_360" data-name="Caminho 360" class="cls-1" d="M-1079.352 460.438a1.689 1.689 0 0 0 1.38-.6 29.947 29.947 0 0 1 5.937-4.573 30.237 30.237 0 0 1 19.117-3.975 29.715 29.715 0 0 1 11.114 3.576 30.871 30.871 0 0 1 6.536 4.868 2.763 2.763 0 0 0 .877.617c.829.318 1.542-.1 2.033-1.107v-.757a5.274 5.274 0 0 0-.57-.785c-8.521-8.139-18.619-11.146-30.184-9.087a31.73 31.73 0 0 0-14.707 6.928c-.863.709-1.677 1.48-2.487 2.25a1.44 1.44 0 0 0-.369 1.649 1.487 1.487 0 0 0 1.323.996z" transform="translate(1088.799 -447.989)"/>
            <path id="Caminho_361" data-name="Caminho 361" class="cls-1" d="M-1011.384 506.892a1.564 1.564 0 0 0-.181-2.306 22.505 22.505 0 0 0-15.114-6.666c-6.236 0-11 1.547-15.018 4.534a31.251 31.251 0 0 0-2.615 2.247 1.507 1.507 0 0 0-.069 2.2 1.533 1.533 0 0 0 2.17.053c.144-.122.277-.258.416-.385a19.879 19.879 0 0 1 18.686-4.974 19.43 19.43 0 0 1 9.416 5.239 1.539 1.539 0 0 0 2.309.058z" transform="translate(1060.116 -487.809)"/>
            <path id="Caminho_362" data-name="Caminho 362" class="cls-1" d="M-990.9 554.306a1.446 1.446 0 0 0 1.234-.928 1.446 1.446 0 0 0-.325-1.7 12.2 12.2 0 0 0-3.27-2.381 12.89 12.89 0 0 0-11.823-.008 12.225 12.225 0 0 0-3.273 2.377 1.518 1.518 0 0 0-.067 2.133 1.531 1.531 0 0 0 2.092.18c.188-.143.355-.311.533-.467a9.736 9.736 0 0 1 8.513-2.355 9.5 9.5 0 0 1 4.959 2.57 1.829 1.829 0 0 0 1.427.579z" transform="translate(1031.409 -527.768)"/>
            <path id="Caminho_363" data-name="Caminho 363" class="cls-1" d="M-969.383 596.628a2.06 2.06 0 0 0-2.093 2.047 2.069 2.069 0 0 0 2.083 2.105 2.07 2.07 0 0 0 2.092-2.1 2.059 2.059 0 0 0-2.082-2.052z" transform="translate(1001.622 -566.719)"/>
        </g>
    </g>
</svg>
