<svg id="Icon_Strong_Signal" data-name="Icon Strong Signal" xmlns="http://www.w3.org/2000/svg" width="20.145" height="14.45">
    <defs>
        <style>
            .cls-1{fill:#42c77b}
        </style>
    </defs>
    <path id="Caminho_345" data-name="Caminho 345" class="cls-1" d="m330.906 360.815-2.636-2.657a.406.406 0 0 1-.123-.3.413.413 0 0 1 .131-.3 4.517 4.517 0 0 1 5.83 0 .414.414 0 0 1 .028.585l-.016.017-2.631 2.657a.411.411 0 0 1-.582 0z" transform="translate(-321.122 -346.487)"/>
    <path id="Caminho_346" data-name="Caminho 346" class="cls-1" d="M313.742 325.1a6.475 6.475 0 0 0-8.688 0 .409.409 0 0 1-.572-.007l-1.524-1.539a.423.423 0 0 1-.006-.6l.006-.006a9.452 9.452 0 0 1 12.866 0 .423.423 0 0 1 .006.6l-.006.006-1.511 1.539a.409.409 0 0 1-.572.007z" transform="translate(-299.319 -315.423)"/>
    <path id="Caminho_347" data-name="Caminho 347" class="cls-1" d="M295.458 290.536a11.406 11.406 0 0 0-15.709 0 .4.4 0 0 1-.572 0L277.653 289a.425.425 0 0 1 0-.6 14.385 14.385 0 0 1 19.9 0 .424.424 0 0 1 0 .6l-1.526 1.537a.4.4 0 0 1-.572 0z" transform="translate(-277.528 -284.41)"/>
</svg>
