<svg xmlns="http://www.w3.org/2000/svg" xmlns:xlink="http://www.w3.org/1999/xlink" width="339.518" height="83.446" viewBox="0 0 339.518 83.446">
  <defs>
    <style>
      .cls-1 {
        fill: #fff;
      }

      .cls-2 {
        fill: url(#linear-gradient);
      }

      .cls-3 {
        fill: url(#linear-gradient-2);
      }

      .cls-4 {
        fill: url(#linear-gradient-3);
      }
    </style>
    <linearGradient id="linear-gradient" x1="-30.35" y1="0.5" x2="1" y2="0.5" gradientUnits="objectBoundingBox">
      <stop offset="0.425" stop-color="#dce646"/>
      <stop offset="0.496" stop-color="#c2df5a"/>
      <stop offset="0.668" stop-color="#88cf89"/>
      <stop offset="0.815" stop-color="#5ec4ab"/>
      <stop offset="0.931" stop-color="#44bdc0"/>
      <stop offset="1" stop-color="#3bbbc8"/>
    </linearGradient>
    <linearGradient id="linear-gradient-2" x1="-1.122" y1="0.5" x2="1.492" y2="0.5" xlink:href="#linear-gradient"/>
    <linearGradient id="linear-gradient-3" x1="0" y1="0.5" x2="2.909" y2="0.5" xlink:href="#linear-gradient"/>
  </defs>
  <g id="Living_Energy_Logo" data-name="Living Energy Logo" transform="translate(-25 -46.563)">
    <g id="Grupo_311" data-name="Grupo 311" transform="translate(25 46.563)">
      <g id="Grupo_252" data-name="Grupo 252" transform="translate(0)">
        <g id="Grupo_249" data-name="Grupo 249" transform="translate(0.897)">
          <path id="Caminho_223" data-name="Caminho 223" class="cls-1" d="M337.067-212.861h1.768v38.842H357.05v1.768H337.067Z" transform="translate(-337.067 212.861)"/>
          <path id="Caminho_224" data-name="Caminho 224" class="cls-1" d="M358-210.186a1.576,1.576,0,0,1,.531-1.238,1.881,1.881,0,0,1,1.3-.471,1.964,1.964,0,0,1,1.354.471,1.572,1.572,0,0,1,.53,1.238,1.509,1.509,0,0,1-.53,1.179,1.958,1.958,0,0,1-1.354.472,1.875,1.875,0,0,1-1.3-.472A1.513,1.513,0,0,1,358-210.186Zm.942,37.663v-27.525h1.77v27.525Z" transform="translate(-331.178 213.133)"/>
          <path id="Caminho_225" data-name="Caminho 225" class="cls-1" d="M390.043-202.649h1.945L380.2-175.124h-2.3L366.23-202.649h1.945l10.847,25.7Z" transform="translate(-328.862 215.734)"/>
          <path id="Caminho_226" data-name="Caminho 226" class="cls-1" d="M391.668-210.186a1.576,1.576,0,0,1,.531-1.238,1.881,1.881,0,0,1,1.3-.471,1.967,1.967,0,0,1,1.356.471,1.576,1.576,0,0,1,.53,1.238,1.513,1.513,0,0,1-.53,1.179,1.961,1.961,0,0,1-1.356.472,1.875,1.875,0,0,1-1.3-.472A1.513,1.513,0,0,1,391.668-210.186Zm.943,37.663v-27.525h1.767v27.525Z" transform="translate(-321.596 213.133)"/>
          <path id="Caminho_227" data-name="Caminho 227" class="cls-1" d="M402.477-174.995V-202.52h1.768v6.07a8.437,8.437,0,0,1,3.89-5.04,12.477,12.477,0,0,1,6.307-1.62,10.843,10.843,0,0,1,8.075,3.241A11.839,11.839,0,0,1,425.7-191.2v16.208h-1.767V-191.2a10.13,10.13,0,0,0-2.682-7.4,9.129,9.129,0,0,0-6.809-2.74,10.264,10.264,0,0,0-7.161,2.592q-2.86,2.6-3.036,8.016v15.738Z" transform="translate(-318.526 215.605)"/>
          <path id="Caminho_228" data-name="Caminho 228" class="cls-1" d="M431.536-168.1a11.372,11.372,0,0,0,9.784,5.069q6.247,0,9.637-3.537t3.389-12.378v-2.888a14.089,14.089,0,0,1-5.187,5.393,14.06,14.06,0,0,1-7.427,2.034,13.753,13.753,0,0,1-10.138-4.214,13.9,13.9,0,0,1-4.185-10.166,13.784,13.784,0,0,1,4.214-10.109,13.784,13.784,0,0,1,10.109-4.214,14.06,14.06,0,0,1,7.427,2.034,14.089,14.089,0,0,1,5.187,5.393v-6.837h1.767v23.576q0,9.728-3.83,13.705t-10.963,3.977a13.071,13.071,0,0,1-11.259-5.835Zm1.325-29.559a12.1,12.1,0,0,0-3.684,8.871,12.2,12.2,0,0,0,3.684,8.9,12.051,12.051,0,0,0,8.872,3.712,12.208,12.208,0,0,0,8.752-3.535,12.041,12.041,0,0,0,3.862-8.547v-.53a12.041,12.041,0,0,0-3.715-8.871,12.193,12.193,0,0,0-8.9-3.684A12.1,12.1,0,0,0,432.861-197.657Z" transform="translate(-311.455 215.605)"/>
          <path id="Caminho_229" data-name="Caminho 229" class="cls-1" d="M484.923-172.251H458.045v-40.61h26.347v8.606h-16.5v7.781h14.5v8.428h-14.5v7.191h17.035Z" transform="translate(-302.771 212.861)"/>
          <path id="Caminho_230" data-name="Caminho 230" class="cls-1" d="M492.3-189.421v14.44h-9.372v-27.466H492.3v4.3a5.925,5.925,0,0,1,3.093-3.684,9.766,9.766,0,0,1,4.627-1.325q5.422,0,8.194,3.506t2.769,10.05v14.618h-9.371V-189.3a4.5,4.5,0,0,0-1.357-3.625,4.694,4.694,0,0,0-3.124-1.148,5.4,5.4,0,0,0-3.36,1.12A4.158,4.158,0,0,0,492.3-189.421Z" transform="translate(-295.715 215.592)"/>
          <path id="Caminho_231" data-name="Caminho 231" class="cls-1" d="M537.022-189.128q0,.707-.178,3.007H517.158a4.083,4.083,0,0,0,2.091,3.034,7.829,7.829,0,0,0,4.216,1.149,6.515,6.515,0,0,0,5.245-2.3q.648.531,3.33,2.415t3.153,2.24q-3.892,5.128-12.437,5.128a14.514,14.514,0,0,1-10.343-4.036,13.669,13.669,0,0,1-4.275-10.4,13.415,13.415,0,0,1,4.275-10.287,14.628,14.628,0,0,1,10.343-3.977,14.256,14.256,0,0,1,10.168,3.861A13.321,13.321,0,0,1,537.022-189.128Zm-19.864-2.24h10.961a4.686,4.686,0,0,0-2.24-3.182,6.829,6.829,0,0,0-3.241-.885,8.106,8.106,0,0,0-1.916.237,5.244,5.244,0,0,0-2.121,1.238A4.371,4.371,0,0,0,517.158-191.368Z" transform="translate(-288.568 215.592)"/>
          <path id="Caminho_232" data-name="Caminho 232" class="cls-1" d="M543.363-184v9.018H533.99v-27.466h8.9v6.778a10.271,10.271,0,0,1,3.391-5.6,8.3,8.3,0,0,1,5.274-1.886,9.625,9.625,0,0,1,4.067.766l-2.3,8.84a12.357,12.357,0,0,0-4.244-.707,4.758,4.758,0,0,0-4.3,2.212Q543.362-189.836,543.363-184Z" transform="translate(-281.249 215.592)"/>
          <path id="Caminho_233" data-name="Caminho 233" class="cls-1" d="M551.921-170.03l7.9-3.183a5.724,5.724,0,0,0,2.328,2.652,6.967,6.967,0,0,0,3.743,1,6.629,6.629,0,0,0,5.365-2.24q1.884-2.241,1.885-6.6-2.241,3.95-8.429,3.949a12.927,12.927,0,0,1-9.371-3.949,13.907,13.907,0,0,1-4.009-10.373,14.017,14.017,0,0,1,4.009-10.4,12.88,12.88,0,0,1,9.371-3.977,10.319,10.319,0,0,1,4.273.942,7.983,7.983,0,0,1,3.33,2.711v-2.946h9.372v23.989q0,8.547-4.1,13t-11.7,4.45a15.106,15.106,0,0,1-8.547-2.506A14.17,14.17,0,0,1,551.921-170.03Zm10.641-22.722a5.508,5.508,0,0,0-1.681,4.038,5.509,5.509,0,0,0,1.681,4.039A5.5,5.5,0,0,0,566.6-183a5.5,5.5,0,0,0,4.038-1.679,5.508,5.508,0,0,0,1.68-4.039,5.508,5.508,0,0,0-1.68-4.038,5.5,5.5,0,0,0-4.038-1.679A5.5,5.5,0,0,0,562.562-192.753Z" transform="translate(-276.265 215.592)"/>
          <path id="Caminho_234" data-name="Caminho 234" class="cls-1" d="M597.656-202.6h9.961L590.642-161.58H580.8l6.9-17.21L576.908-202.6h10.256l5.364,13.32Z" transform="translate(-269.069 215.747)"/>
        </g>
        <g id="Grupo_250" data-name="Grupo 250" transform="translate(0 51.929)">
          <path id="Caminho_235" data-name="Caminho 235" class="cls-2" d="M592.492-169.925h10.813v-2.41h-9.816Z" transform="translate(-263.787 172.334)"/>
          <path id="Caminho_236" data-name="Caminho 236" class="cls-3" d="M577.545-172.334H451.824a15.814,15.814,0,0,1-1.862,2.409H579.644A19.833,19.833,0,0,1,577.545-172.334Z" transform="translate(-304.047 172.335)"/>
          <path id="Caminho_237" data-name="Caminho 237" class="cls-4" d="M336.367-172.334v2.409H452.913a21.525,21.525,0,0,1-2-2.409Z" transform="translate(-336.367 172.335)"/>
        </g>
        <g id="Grupo_251" data-name="Grupo 251" transform="translate(0 68.338)">
          <path id="Caminho_238" data-name="Caminho 238" class="cls-1" d="M336.367-159.145h1.047v9.877h4.63v1.047h-5.676Z" transform="translate(-336.367 159.637)"/>
          <path id="Caminho_239" data-name="Caminho 239" class="cls-1" d="M351.011-156.363v7.4h-1.062v-1.269a2.639,2.639,0,0,1-1.172,1.055,3.713,3.713,0,0,1-1.618.373,3.683,3.683,0,0,1-2.7-1.079,3.781,3.781,0,0,1-1.085-2.806,3.7,3.7,0,0,1,1.085-2.783,3.728,3.728,0,0,1,2.7-1.053,3.809,3.809,0,0,1,1.626.356,2.571,2.571,0,0,1,1.165,1.024v-1.221Zm-6.579,3.678a2.767,2.767,0,0,0,.785,2.022,2.607,2.607,0,0,0,1.94.8,2.8,2.8,0,0,0,1.99-.753,2.7,2.7,0,0,0,.8-2.069,2.561,2.561,0,0,0-.848-2.028,2.855,2.855,0,0,0-1.943-.746,2.671,2.671,0,0,0-1.949.76A2.7,2.7,0,0,0,344.432-152.686Z" transform="translate(-334.397 160.375)"/>
          <path id="Caminho_240" data-name="Caminho 240" class="cls-1" d="M353.106-148.113v-11.416h1.064v5.233a2.564,2.564,0,0,1,1.165-1.024,3.8,3.8,0,0,1,1.625-.356,3.731,3.731,0,0,1,2.7,1.053,3.709,3.709,0,0,1,1.085,2.783,3.786,3.786,0,0,1-1.085,2.806,3.685,3.685,0,0,1-2.7,1.079,3.712,3.712,0,0,1-1.617-.373,2.632,2.632,0,0,1-1.172-1.055v1.269Zm6.58-3.726a2.7,2.7,0,0,0-.777-2.014,2.674,2.674,0,0,0-1.95-.76,2.855,2.855,0,0,0-1.941.746,2.561,2.561,0,0,0-.848,2.028,2.706,2.706,0,0,0,.8,2.069,2.8,2.8,0,0,0,1.99.753,2.613,2.613,0,0,0,1.943-.8A2.772,2.772,0,0,0,359.686-151.84Z" transform="translate(-331.657 159.529)"/>
          <path id="Caminho_241" data-name="Caminho 241" class="cls-1" d="M371.473-159.529v1h-.793a1.63,1.63,0,0,0-.832.19,1.083,1.083,0,0,0-.466.532,2.5,2.5,0,0,0-.183.666,6.583,6.583,0,0,0-.04.769v.856h1.823v.951h-1.823v6.453H368.1v-6.453h-1.443v-.951H368.1v-.856q0-3.156,2.583-3.156Z" transform="translate(-327.845 159.529)"/>
          <path id="Caminho_242" data-name="Caminho 242" class="cls-1" d="M379.243-149.879A3.819,3.819,0,0,1,376.5-148.8a3.818,3.818,0,0,1-2.742-1.079,3.708,3.708,0,0,1-1.125-2.806,3.648,3.648,0,0,1,1.117-2.774,3.838,3.838,0,0,1,2.75-1.062,3.844,3.844,0,0,1,2.752,1.062,3.653,3.653,0,0,1,1.117,2.774A3.714,3.714,0,0,1,379.243-149.879Zm-4.749-.761a2.766,2.766,0,0,0,2.005.792,2.767,2.767,0,0,0,2.007-.792,2.729,2.729,0,0,0,.816-2.045,2.654,2.654,0,0,0-.816-2.022,2.823,2.823,0,0,0-2.007-.769,2.822,2.822,0,0,0-2.005.769,2.654,2.654,0,0,0-.816,2.022A2.729,2.729,0,0,0,374.494-150.64Z" transform="translate(-326.163 160.375)"/>
          <path id="Caminho_243" data-name="Caminho 243" class="cls-1" d="M386.44-156.236l-.128,1.029a2.391,2.391,0,0,0-1.076-.252,1.7,1.7,0,0,0-1.594,1.07,5.991,5.991,0,0,0-.532,2.672v2.759h-1.062v-7.4h1.062v1.68a2.139,2.139,0,0,1,2.126-1.839,2.838,2.838,0,0,1,.728.095A1.337,1.337,0,0,1,386.44-156.236Z" transform="translate(-323.514 160.375)"/>
          <path id="Caminho_244" data-name="Caminho 244" class="cls-1" d="M400.49-159.529v11.416h-1.062v-1.269a2.636,2.636,0,0,1-1.174,1.055,3.707,3.707,0,0,1-1.617.373,3.683,3.683,0,0,1-2.7-1.079,3.782,3.782,0,0,1-1.087-2.806,3.705,3.705,0,0,1,1.087-2.783,3.729,3.729,0,0,1,2.7-1.053,3.8,3.8,0,0,1,1.625.356,2.568,2.568,0,0,1,1.166,1.024v-5.233Zm-6.58,7.689a2.772,2.772,0,0,0,.785,2.022,2.612,2.612,0,0,0,1.941.8,2.8,2.8,0,0,0,1.99-.753,2.7,2.7,0,0,0,.8-2.069,2.561,2.561,0,0,0-.848-2.028,2.856,2.856,0,0,0-1.943-.746,2.675,2.675,0,0,0-1.95.76A2.7,2.7,0,0,0,393.91-151.84Z" transform="translate(-320.363 159.529)"/>
          <path id="Caminho_245" data-name="Caminho 245" class="cls-1" d="M405.932-148.8a3.614,3.614,0,0,1-2.673-1.079,3.815,3.815,0,0,1-1.07-2.806,3.747,3.747,0,0,1,1.062-2.783,3.649,3.649,0,0,1,2.681-1.053,3.484,3.484,0,0,1,2.615,1.046,3.837,3.837,0,0,1,1.015,2.791,4.736,4.736,0,0,1-.017.491h-6.278a2.635,2.635,0,0,0,.88,1.7,2.621,2.621,0,0,0,1.784.642,2.744,2.744,0,0,0,1.356-.34,2.5,2.5,0,0,0,.958-.944c.117.032.3.074.547.128s.42.088.514.11a3.391,3.391,0,0,1-1.347,1.538A3.8,3.8,0,0,1,405.932-148.8Zm-2.664-4.377h5.215a2.717,2.717,0,0,0-.847-1.68,2.463,2.463,0,0,0-1.7-.619,2.63,2.63,0,0,0-1.776.627A2.638,2.638,0,0,0,403.268-153.178Z" transform="translate(-317.716 160.375)"/>
          <path id="Caminho_246" data-name="Caminho 246" class="cls-1" d="M410.788-151.084h.935a1.609,1.609,0,0,0,1.744,1.284,1.844,1.844,0,0,0,1.142-.325,1.019,1.019,0,0,0,.428-.848c0-.592-.355-.971-1.062-1.142l-1.032-.238a4.044,4.044,0,0,1-.714-.228,2.927,2.927,0,0,1-.625-.4,1.392,1.392,0,0,1-.459-.714,2.719,2.719,0,0,1-.072-1.07,1.84,1.84,0,0,1,.8-1.269,2.706,2.706,0,0,1,1.609-.491,2.523,2.523,0,0,1,1.554.475,2.1,2.1,0,0,1,.776,1.443h-1.03a1.066,1.066,0,0,0-.452-.659,1.466,1.466,0,0,0-.848-.245,1.662,1.662,0,0,0-.926.252.948.948,0,0,0-.452.651q-.175.934,1.094,1.237l1.015.237a2.094,2.094,0,0,1,1.87,2.157,1.9,1.9,0,0,1-.777,1.562,3.039,3.039,0,0,1-1.935.611,2.712,2.712,0,0,1-1.767-.628A2.157,2.157,0,0,1,410.788-151.084Z" transform="translate(-315.28 160.375)"/>
          <path id="Caminho_247" data-name="Caminho 247" class="cls-1" d="M418.288-157.837a.705.705,0,0,1-.238-.548.7.7,0,0,1,.238-.546.82.82,0,0,1,.57-.214.82.82,0,0,1,.571.214.7.7,0,0,1,.237.546.7.7,0,0,1-.237.548.826.826,0,0,1-.571.214A.826.826,0,0,1,418.288-157.837Zm1.078,9.615v-7.4h-1.047v7.4Z" transform="translate(-313.224 159.637)"/>
          <path id="Caminho_248" data-name="Caminho 248" class="cls-1" d="M422.947-147.105l.9-.523a2.516,2.516,0,0,0,2.282,1.316,2.648,2.648,0,0,0,2.149-.919,4.768,4.768,0,0,0,.753-3.077,2.5,2.5,0,0,1-1.142,1.1,3.576,3.576,0,0,1-1.649.4,3.72,3.72,0,0,1-2.7-1.056,3.7,3.7,0,0,1-1.087-2.782,3.784,3.784,0,0,1,1.087-2.806,3.682,3.682,0,0,1,2.7-1.078,3.694,3.694,0,0,1,1.617.373,2.625,2.625,0,0,1,1.174,1.053v-1.267H430.1v6.23q0,4.867-3.965,4.867a3.693,3.693,0,0,1-1.807-.46A3.588,3.588,0,0,1,422.947-147.105Zm.57-5.533a2.69,2.69,0,0,0,.776,2.013,2.677,2.677,0,0,0,1.95.762,2.858,2.858,0,0,0,1.943-.746,2.566,2.566,0,0,0,.848-2.03,2.708,2.708,0,0,0-.8-2.069,2.8,2.8,0,0,0-1.99-.752,2.607,2.607,0,0,0-1.941.8A2.764,2.764,0,0,0,423.517-152.638Z" transform="translate(-311.973 160.375)"/>
          <path id="Caminho_249" data-name="Caminho 249" class="cls-1" d="M433.242-153v4.043H432.18v-7.4h1.062v1.221a2.125,2.125,0,0,1,1.032-1.031,3.207,3.207,0,0,1,1.426-.349,2.669,2.669,0,0,1,2.109.864,3.427,3.427,0,0,1,.744,2.386v4.313h-1.061v-4.313a2.526,2.526,0,0,0-.469-1.617,1.6,1.6,0,0,0-1.324-.587,2.606,2.606,0,0,0-1.728.611A2.292,2.292,0,0,0,433.242-153Z" transform="translate(-309.218 160.375)"/>
          <path id="Caminho_250" data-name="Caminho 250" class="cls-1" d="M440.882-157.837a.705.705,0,0,1-.238-.548.7.7,0,0,1,.238-.546.817.817,0,0,1,.57-.214.821.821,0,0,1,.572.214.7.7,0,0,1,.237.546.709.709,0,0,1-.237.548.827.827,0,0,1-.572.214A.823.823,0,0,1,440.882-157.837Zm1.078,9.615v-7.4h-1.047v7.4Z" transform="translate(-306.823 159.637)"/>
          <path id="Caminho_251" data-name="Caminho 251" class="cls-1" d="M446.507-153v4.043h-1.062v-7.4h1.062v1.221a2.127,2.127,0,0,1,1.03-1.031,3.215,3.215,0,0,1,1.426-.349,2.67,2.67,0,0,1,2.11.864,3.427,3.427,0,0,1,.743,2.386v4.313h-1.061v-4.313a2.533,2.533,0,0,0-.468-1.617,1.6,1.6,0,0,0-1.325-.587,2.606,2.606,0,0,0-1.727.611A2.289,2.289,0,0,0,446.507-153Z" transform="translate(-305.46 160.375)"/>
          <path id="Caminho_252" data-name="Caminho 252" class="cls-1" d="M454.214-147.105l.9-.523a2.516,2.516,0,0,0,2.282,1.316,2.648,2.648,0,0,0,2.149-.919,4.776,4.776,0,0,0,.753-3.077,2.5,2.5,0,0,1-1.142,1.1,3.577,3.577,0,0,1-1.649.4,3.72,3.72,0,0,1-2.7-1.056,3.7,3.7,0,0,1-1.087-2.782,3.784,3.784,0,0,1,1.087-2.806,3.682,3.682,0,0,1,2.7-1.078,3.693,3.693,0,0,1,1.617.373A2.625,2.625,0,0,1,460.3-155.1v-1.267h1.062v6.23q0,4.867-3.965,4.867a3.693,3.693,0,0,1-1.807-.46A3.588,3.588,0,0,1,454.214-147.105Zm.57-5.533a2.69,2.69,0,0,0,.777,2.013,2.677,2.677,0,0,0,1.95.762,2.857,2.857,0,0,0,1.943-.746,2.565,2.565,0,0,0,.848-2.03,2.708,2.708,0,0,0-.8-2.069,2.8,2.8,0,0,0-1.99-.752,2.607,2.607,0,0,0-1.941.8A2.764,2.764,0,0,0,454.784-152.638Z" transform="translate(-303.113 160.375)"/>
          <path id="Caminho_253" data-name="Caminho 253" class="cls-1" d="M470.1-148.385h-1.062v-6.453H467.7v-.951h1.331v-2.774H470.1v2.774h1.568v.951H470.1Z" transform="translate(-299.155 159.801)"/>
          <path id="Caminho_254" data-name="Caminho 254" class="cls-1" d="M480.043-149.879A3.819,3.819,0,0,1,477.3-148.8a3.82,3.82,0,0,1-2.742-1.079,3.708,3.708,0,0,1-1.125-2.806,3.648,3.648,0,0,1,1.117-2.774,3.839,3.839,0,0,1,2.75-1.062,3.843,3.843,0,0,1,2.752,1.062,3.652,3.652,0,0,1,1.117,2.774A3.714,3.714,0,0,1,480.043-149.879Zm-4.748-.761a2.762,2.762,0,0,0,2,.792,2.767,2.767,0,0,0,2.007-.792,2.724,2.724,0,0,0,.816-2.045,2.649,2.649,0,0,0-.816-2.022,2.823,2.823,0,0,0-2.007-.769,2.817,2.817,0,0,0-2,.769,2.65,2.65,0,0,0-.817,2.022A2.725,2.725,0,0,0,475.3-150.64Z" transform="translate(-297.529 160.375)"/>
          <path id="Caminho_255" data-name="Caminho 255" class="cls-1" d="M489.221-153v4.043H488.16v-4.313a2.526,2.526,0,0,0-.469-1.617,1.6,1.6,0,0,0-1.324-.587,2.606,2.606,0,0,0-1.729.611A2.292,2.292,0,0,0,483.91-153v4.043h-1.063v-7.4h1.063v1.221a2.192,2.192,0,0,1,1.078-1.015,3.217,3.217,0,0,1,1.379-.365,2.524,2.524,0,0,1,2.569,1.617,2.784,2.784,0,0,1,2.743-1.617,2.665,2.665,0,0,1,2.108.864,3.433,3.433,0,0,1,.745,2.386v4.313h-1.062v-4.313A2.525,2.525,0,0,0,493-154.89a1.6,1.6,0,0,0-1.322-.587,2.6,2.6,0,0,0-1.729.611A2.293,2.293,0,0,0,489.221-153Z" transform="translate(-294.857 160.375)"/>
          <path id="Caminho_256" data-name="Caminho 256" class="cls-1" d="M501.88-149.879a3.814,3.814,0,0,1-2.742,1.079,3.824,3.824,0,0,1-2.743-1.079,3.713,3.713,0,0,1-1.125-2.806,3.653,3.653,0,0,1,1.117-2.774,3.84,3.84,0,0,1,2.751-1.062,3.838,3.838,0,0,1,2.751,1.062,3.649,3.649,0,0,1,1.119,2.774A3.711,3.711,0,0,1,501.88-149.879Zm-4.748-.761a2.765,2.765,0,0,0,2.005.792,2.769,2.769,0,0,0,2.007-.792,2.728,2.728,0,0,0,.815-2.045,2.653,2.653,0,0,0-.815-2.022,2.825,2.825,0,0,0-2.007-.769,2.821,2.821,0,0,0-2.005.769,2.655,2.655,0,0,0-.818,2.022A2.73,2.73,0,0,0,497.132-150.64Z" transform="translate(-291.341 160.375)"/>
          <path id="Caminho_257" data-name="Caminho 257" class="cls-1" d="M509.076-156.236l-.127,1.029a2.391,2.391,0,0,0-1.078-.252,1.7,1.7,0,0,0-1.593,1.07,5.977,5.977,0,0,0-.532,2.672v2.759h-1.062v-7.4h1.062v1.68a2.138,2.138,0,0,1,2.125-1.839,2.847,2.847,0,0,1,.729.095A1.326,1.326,0,0,1,509.076-156.236Z" transform="translate(-288.676 160.375)"/>
          <path id="Caminho_258" data-name="Caminho 258" class="cls-1" d="M515.511-156.236l-.128,1.029a2.391,2.391,0,0,0-1.076-.252,1.7,1.7,0,0,0-1.594,1.07,5.991,5.991,0,0,0-.532,2.672v2.759h-1.062v-7.4h1.062v1.68a2.138,2.138,0,0,1,2.126-1.839,2.837,2.837,0,0,1,.728.095A1.336,1.336,0,0,1,515.511-156.236Z" transform="translate(-286.853 160.375)"/>
          <path id="Caminho_259" data-name="Caminho 259" class="cls-1" d="M523.595-149.879a3.816,3.816,0,0,1-2.742,1.079,3.821,3.821,0,0,1-2.743-1.079,3.713,3.713,0,0,1-1.125-2.806,3.653,3.653,0,0,1,1.117-2.774,3.841,3.841,0,0,1,2.751-1.062,3.843,3.843,0,0,1,2.751,1.062,3.652,3.652,0,0,1,1.117,2.774A3.709,3.709,0,0,1,523.595-149.879Zm-4.747-.761a2.764,2.764,0,0,0,2.005.792,2.766,2.766,0,0,0,2.005-.792,2.723,2.723,0,0,0,.816-2.045,2.648,2.648,0,0,0-.816-2.022,2.822,2.822,0,0,0-2.005-.769,2.82,2.82,0,0,0-2.005.769,2.65,2.65,0,0,0-.818,2.022A2.725,2.725,0,0,0,518.847-150.64Z" transform="translate(-285.188 160.375)"/>
          <path id="Caminho_260" data-name="Caminho 260" class="cls-1" d="M534.718-148.994h-.887l-2.3-5.946-2.221,5.946h-.888l-2.853-7.4H526.7l2.14,5.723,2.124-5.723H532.1l2.14,5.723,2.124-5.723h1.125Z" transform="translate(-282.75 160.41)"/>
          <path id="Caminho_261" data-name="Caminho 261" class="cls-1" d="M538.285-155.868l-.6-.206a5.246,5.246,0,0,0,.919-3.17h1.047a6.479,6.479,0,0,1-.492,2.077A3.521,3.521,0,0,1,538.285-155.868Z" transform="translate(-279.329 159.609)"/>
          <path id="Caminho_262" data-name="Caminho 262" class="cls-1" d="M541.853-151.084h.935a1.61,1.61,0,0,0,1.744,1.284,1.841,1.841,0,0,0,1.142-.325,1.019,1.019,0,0,0,.428-.848c0-.592-.355-.971-1.062-1.142l-1.03-.238a3.975,3.975,0,0,1-.714-.228,2.9,2.9,0,0,1-.627-.4,1.4,1.4,0,0,1-.459-.714,2.719,2.719,0,0,1-.072-1.07,1.837,1.837,0,0,1,.8-1.269,2.7,2.7,0,0,1,1.608-.491,2.522,2.522,0,0,1,1.554.475,2.1,2.1,0,0,1,.777,1.443h-1.03a1.066,1.066,0,0,0-.452-.659,1.466,1.466,0,0,0-.848-.245,1.663,1.663,0,0,0-.927.252.949.949,0,0,0-.452.651q-.175.934,1.094,1.237l1.015.237a2.094,2.094,0,0,1,1.87,2.157,1.9,1.9,0,0,1-.776,1.562,3.038,3.038,0,0,1-1.934.611,2.714,2.714,0,0,1-1.768-.628A2.162,2.162,0,0,1,541.853-151.084Z" transform="translate(-278.144 160.375)"/>
          <path id="Caminho_263" data-name="Caminho 263" class="cls-1" d="M557.732-148.8a3.611,3.611,0,0,1-2.672-1.079,3.815,3.815,0,0,1-1.07-2.806,3.746,3.746,0,0,1,1.062-2.783,3.646,3.646,0,0,1,2.679-1.053,3.484,3.484,0,0,1,2.615,1.046,3.837,3.837,0,0,1,1.015,2.791,4.722,4.722,0,0,1-.017.491h-6.277a2.635,2.635,0,0,0,.88,1.7,2.621,2.621,0,0,0,1.784.642,2.74,2.74,0,0,0,1.356-.34,2.508,2.508,0,0,0,.96-.944c.115.032.3.074.546.128s.42.088.515.11a3.406,3.406,0,0,1-1.347,1.538A3.8,3.8,0,0,1,557.732-148.8Zm-2.664-4.377h5.215a2.7,2.7,0,0,0-.847-1.68,2.458,2.458,0,0,0-1.7-.619,2.629,2.629,0,0,0-1.776.627A2.644,2.644,0,0,0,555.068-153.178Z" transform="translate(-274.62 160.375)"/>
          <path id="Caminho_264" data-name="Caminho 264" class="cls-1" d="M564.108-153v4.043h-1.062v-7.4h1.062v1.221a2.126,2.126,0,0,1,1.03-1.031,3.216,3.216,0,0,1,1.426-.349,2.67,2.67,0,0,1,2.11.864,3.427,3.427,0,0,1,.743,2.386v4.313h-1.061v-4.313a2.524,2.524,0,0,0-.468-1.617,1.6,1.6,0,0,0-1.325-.587,2.606,2.606,0,0,0-1.727.611A2.293,2.293,0,0,0,564.108-153Z" transform="translate(-272.072 160.375)"/>
          <path id="Caminho_265" data-name="Caminho 265" class="cls-1" d="M575.067-148.8a3.613,3.613,0,0,1-2.673-1.079,3.815,3.815,0,0,1-1.07-2.806,3.746,3.746,0,0,1,1.062-2.783,3.648,3.648,0,0,1,2.68-1.053,3.486,3.486,0,0,1,2.615,1.046,3.843,3.843,0,0,1,1.015,2.791,4.7,4.7,0,0,1-.017.491H572.4a2.629,2.629,0,0,0,.88,1.7,2.618,2.618,0,0,0,1.784.642,2.743,2.743,0,0,0,1.356-.34,2.5,2.5,0,0,0,.959-.944c.115.032.3.074.546.128s.421.088.515.11a3.4,3.4,0,0,1-1.347,1.538A3.8,3.8,0,0,1,575.067-148.8Zm-2.664-4.377h5.215a2.717,2.717,0,0,0-.847-1.68,2.463,2.463,0,0,0-1.7-.619,2.633,2.633,0,0,0-1.777.627A2.637,2.637,0,0,0,572.4-153.178Z" transform="translate(-269.743 160.375)"/>
          <path id="Caminho_266" data-name="Caminho 266" class="cls-1" d="M584.773-156.236l-.128,1.029a2.39,2.39,0,0,0-1.076-.252,1.7,1.7,0,0,0-1.594,1.07,5.991,5.991,0,0,0-.532,2.672v2.759H580.38v-7.4h1.062v1.68a2.139,2.139,0,0,1,2.126-1.839,2.836,2.836,0,0,1,.728.095A1.338,1.338,0,0,1,584.773-156.236Z" transform="translate(-267.195 160.375)"/>
          <path id="Caminho_267" data-name="Caminho 267" class="cls-1" d="M586.736-147.105l.9-.523a2.516,2.516,0,0,0,2.282,1.316,2.649,2.649,0,0,0,2.149-.919,4.778,4.778,0,0,0,.753-3.077,2.5,2.5,0,0,1-1.142,1.1,3.576,3.576,0,0,1-1.649.4,3.718,3.718,0,0,1-2.7-1.056,3.7,3.7,0,0,1-1.086-2.782,3.784,3.784,0,0,1,1.086-2.806,3.68,3.68,0,0,1,2.7-1.078,3.693,3.693,0,0,1,1.617.373,2.624,2.624,0,0,1,1.174,1.053v-1.267h1.062v6.23q0,4.867-3.964,4.867a3.7,3.7,0,0,1-1.807-.46A3.581,3.581,0,0,1,586.736-147.105Zm.57-5.533a2.69,2.69,0,0,0,.777,2.013,2.677,2.677,0,0,0,1.95.762,2.854,2.854,0,0,0,1.941-.746,2.562,2.562,0,0,0,.849-2.03,2.708,2.708,0,0,0-.8-2.069,2.8,2.8,0,0,0-1.99-.752,2.607,2.607,0,0,0-1.941.8A2.764,2.764,0,0,0,587.306-152.638Z" transform="translate(-265.545 160.375)"/>
          <path id="Caminho_268" data-name="Caminho 268" class="cls-1" d="M597.927-145.412h-1.093l1.475-3.6-3.045-7.387h1.11l2.505,6.024L601.4-156.4h1.125Z" transform="translate(-263.007 160.41)"/>
        </g>
      </g>
    </g>
  </g>
</svg>
