<svg xmlns="http://www.w3.org/2000/svg" width="15.689" height="13.254">
    <defs>
        <style>
            .cls-1{fill:#41c5d3}
        </style>
    </defs>
    <g id="Icon_Update" data-name="Icon Update" transform="translate(-615 -44)">
        <g id="Grupo_312" data-name="Grupo 312" transform="translate(615 44)">
            <path id="Caminho_269" data-name="Caminho 269" class="cls-1" d="M-1026.586 414.736c-.081-.091-.143-.16-.2-.229l-2.077-2.384a.361.361 0 0 1-.1-.379.386.386 0 0 1 .384-.277h.694c.132 0 .133 0 .129-.128a6.382 6.382 0 0 1 .072-1.189 6.515 6.515 0 0 1 .5-1.695 6.638 6.638 0 0 1 2.629-2.963 6.372 6.372 0 0 1 1.72-.728 6.6 6.6 0 0 1 2.515-.17 6.5 6.5 0 0 1 3.57 1.61c.085.075.084.075.013.158l-1.247 1.459c-.082.1-.081.1-.174.013a4.447 4.447 0 0 0-1.817-.984 4.364 4.364 0 0 0-2.109-.052 4.425 4.425 0 0 0-2.67 1.743 4.379 4.379 0 0 0-.721 1.525 4.538 4.538 0 0 0-.133 1.325c0 .067.033.078.09.078h.88a.375.375 0 0 1 .39.264.375.375 0 0 1-.086.392l-1.11 1.275-1.093 1.256a.652.652 0 0 0-.049.08z" transform="translate(1028.983 -404.542)"/>
            <path id="Caminho_270" data-name="Caminho 270" class="cls-1" d="M-798.823 622.214c.023.032.038.057.056.078q1.091 1.253 2.184 2.5a.4.4 0 0 1 .034.543.384.384 0 0 1-.314.136h-.727c-.069 0-.09.021-.094.091a6.432 6.432 0 0 1-.5 2.161 6.615 6.615 0 0 1-2.99 3.284 6.359 6.359 0 0 1-1.68.622 6.853 6.853 0 0 1-1.882.143 6.3 6.3 0 0 1-1.118-.17 6.29 6.29 0 0 1-1.821-.742c-.24-.146-.466-.316-.7-.474-.048-.033-.061-.062-.016-.114q.646-.749 1.286-1.5c.048-.056.079-.066.142-.018a4.367 4.367 0 0 0 1.847.81 4.388 4.388 0 0 0 1.531.015 4.406 4.406 0 0 0 2.6-1.418 4.29 4.29 0 0 0 1.033-1.966c.047-.208.07-.422.107-.632.013-.071-.015-.088-.081-.087h-.905a.371.371 0 0 1-.376-.422.446.446 0 0 1 .1-.225c.548-.636 1.1-1.268 1.653-1.9l.544-.625c.027-.027.049-.049.087-.09z" transform="translate(812.148 -618.531)"/>
        </g>
    </g>
</svg>
