<svg id="Logo_SEL" data-name="Logo SEL" xmlns="http://www.w3.org/2000/svg" xmlns:xlink="http://www.w3.org/1999/xlink" width="133.681" height="54.423" viewBox="0 0 133.681 54.423">
  <defs>
    <style>
      .cls-1 {
        fill: #fff;
      }

      .cls-2 {
        clip-path: url(#clip-path);
      }
    </style>
    <clipPath id="clip-path">
      <path id="Caminho_15" data-name="Caminho 15" class="cls-1" d="M225.492,348.833c0,.262,0,.522-.012.783-.018.619-.057,1.248-.117,1.864a23.686,23.686,0,0,1-23.631,21.347,24.014,24.014,0,0,1-3.389-.241,23.708,23.708,0,0,1-20.28-21.535q-.044-.528-.065-1.061l-.009-.232v-.023c-.006-.232-.011-.463-.011-.7,0-.682.031-1.382.09-2.065a16.771,16.771,0,0,1,20.056-14.611c.432.089.856.2,1.275.322.116.034.231.07.346.106q.5.158.99.346c.086.033.173.063.259.1q.591.24,1.159.523c.09.045.177.094.266.14q.449.234.882.494c.1.06.2.12.3.182.356.224.706.458,1.043.707.028.021.055.044.082.064.219.164.427.341.637.516a14.778,14.778,0,0,0-21.866,12.974,18.324,18.324,0,0,0,18.337,18.39q.9,0,1.781-.087c.2-.019.392-.061.59-.086.384-.05.769-.095,1.146-.169.223-.044.437-.109.657-.161.343-.081.689-.154,1.025-.254.222-.066.435-.153.654-.227.324-.11.65-.212.965-.339.211-.085.411-.189.618-.282.313-.14.629-.273.932-.43.194-.1.376-.217.566-.324.3-.171.611-.337.9-.524.174-.111.337-.238.507-.355.3-.2.594-.4.876-.622.152-.118.293-.251.441-.374.286-.237.574-.472.845-.725.132-.123.252-.259.381-.387.272-.27.545-.539.8-.826.114-.128.215-.266.325-.4.254-.3.508-.6.742-.921.1-.133.183-.275.278-.41.229-.33.458-.659.666-1,.085-.141.158-.29.239-.434.2-.35.4-.7.573-1.066.075-.156.137-.318.207-.476.163-.364.325-.727.465-1.1.066-.176.116-.359.176-.538.123-.367.248-.733.348-1.11.055-.206.093-.419.142-.629.082-.357.167-.713.228-1.078.042-.248.063-.5.1-.755.036-.284.085-.564.108-.853h.008c.022-.323.035-.647.043-.971,0-.158.006-.316.006-.475s0-.317-.006-.472a22.111,22.111,0,0,0-.342-3.432,25.316,25.316,0,0,0-25-21.268c-.557,0-1.108.025-1.656.06-.148.01-.295.022-.442.034q-.7.058-1.381.152c-.088.012-.177.021-.265.034-.53.079-1.055.178-1.574.29-.131.028-.261.06-.391.09q-.632.147-1.252.325c-.118.034-.237.065-.354.1q-.754.228-1.488.5c-.1.037-.2.078-.295.116q-.608.236-1.2.5c-.125.056-.25.111-.373.169-.472.221-.939.452-1.4.7-.043.023-.085.049-.127.073-.417.231-.825.475-1.228.728-.058.037-.12.069-.179.106a27.2,27.2,0,0,1,44.267,21.188Zm-54.422.1c0,.893.049,1.8.138,2.676a27.273,27.273,0,0,0,41.7,20.215c-.081.04-.165.074-.247.112-.285.136-.572.268-.863.393-.141.061-.283.119-.425.177q-.4.165-.811.316c-.145.054-.29.108-.436.159-.3.105-.605.2-.912.3-.115.035-.228.074-.344.108q-.629.183-1.27.335c-.095.022-.191.04-.286.061-.337.075-.676.146-1.018.207-.153.028-.307.051-.46.076-.293.047-.588.091-.884.128-.162.021-.324.04-.487.057-.309.033-.619.059-.931.081-.144.01-.287.023-.432.031-.455.024-.911.039-1.372.039a25.629,25.629,0,0,1-3.611-.257,25.315,25.315,0,0,1-21.694-24.089l-.011-.271v-.008c-.007-.156-.014-.31-.018-.47s-.006-.313-.006-.472,0-.317.006-.475c.022-1.041.346-3.129.346-3.129.006-.031.016-.06.022-.091.026-.127.063-.25.091-.377.1-.423.2-.843.319-1.253.045-.15.1-.294.15-.442.124-.378.251-.753.4-1.119.064-.161.139-.316.207-.474.149-.342.3-.683.469-1.014.084-.165.176-.324.265-.486.171-.312.346-.621.534-.922.1-.165.213-.325.322-.486.191-.284.385-.564.591-.836.123-.162.25-.319.378-.478.208-.257.421-.51.642-.755.141-.156.285-.308.431-.459q.336-.347.688-.676.238-.222.483-.435c.238-.206.481-.4.73-.6.175-.137.351-.272.531-.4.251-.182.509-.355.769-.524.19-.123.379-.247.574-.363.265-.158.536-.305.809-.45.2-.107.4-.216.609-.316.28-.135.566-.256.853-.378.21-.089.419-.181.633-.263.3-.112.6-.208.9-.3.215-.069.427-.143.645-.2.318-.089.643-.158.967-.23.212-.047.42-.1.635-.142.361-.066.729-.11,1.1-.155.185-.022.365-.056.551-.073.557-.051,1.12-.079,1.69-.079a18.323,18.323,0,0,1,18.337,18.389A14.777,14.777,0,0,1,191.2,361.809c.213.177.425.357.647.524.023.017.045.036.068.053.34.252.693.487,1.053.713.093.059.188.115.283.172q.443.267.9.506c.083.043.165.089.25.131q.571.285,1.168.527c.081.033.165.061.247.093q.492.19,1,.349c.114.036.228.072.343.106.419.122.843.233,1.276.323a16.771,16.771,0,0,0,20.122-15.394c.01-.28.018-.584.018-.887,0-.725-.034-1.467-.1-2.207-.05-.547-.12-1.1-.207-1.63a23.984,23.984,0,0,0-16.344-18.864,23.133,23.133,0,0,0-3.713-.848,23.756,23.756,0,0,0-27.143,23.455" transform="translate(-171.07 -321.622)"/>
    </clipPath>
  </defs>
  <g id="Grupo_5" data-name="Grupo 5" transform="translate(64.007 6.479)">
    <g id="Grupo_3" data-name="Grupo 3" transform="translate(0 0)">
      <g id="Grupo_1" data-name="Grupo 1">
        <path id="Caminho_1" data-name="Caminho 1" class="cls-1" d="M414.236,355.372h2.713a1.525,1.525,0,0,0,.535,1.089,1.981,1.981,0,0,0,1.366.443,2.223,2.223,0,0,0,1.338-.369,1.2,1.2,0,0,0,.526-.978,1.121,1.121,0,0,0-.3-.831,2.719,2.719,0,0,0-1.227-.609l-1.532-.424q-3.286-1.015-3.286-3.655a3.423,3.423,0,0,1,1.255-2.74,4.665,4.665,0,0,1,3.12-1.062,4.539,4.539,0,0,1,3.092,1.052,3.577,3.577,0,0,1,1.209,2.843h-2.695a1.362,1.362,0,0,0-.425-1.043,1.719,1.719,0,0,0-1.218-.4,1.864,1.864,0,0,0-1.181.36,1.112,1.112,0,0,0-.461.914q0,.9,1.365,1.292l1.513.48q3.581,1.034,3.489,3.839a3.367,3.367,0,0,1-.7,2.076,3.877,3.877,0,0,1-1.689,1.264,6.037,6.037,0,0,1-2.187.388,4.933,4.933,0,0,1-3.341-1.1A3.568,3.568,0,0,1,414.236,355.372Z" transform="translate(-414.236 -346.236)"/>
        <path id="Caminho_2" data-name="Caminho 2" class="cls-1" d="M462.616,354.992l3.8-8.195h2.27l1.551,12.717h-2.713l-.886-7.623-2.972,6.164h-2.086l-2.99-6.164-.9,7.623h-2.713l1.569-12.717h2.233Z" transform="translate(-444.251 -346.649)"/>
        <path id="Caminho_3" data-name="Caminho 3" class="cls-1" d="M523.955,356.505h-4.393l-1.126,3.009h-2.879l4.725-12.717h2.935l4.707,12.717h-2.842Zm-3.507-2.344h2.639l-1.347-4.43Z" transform="translate(-488.887 -346.649)"/>
        <path id="Caminho_4" data-name="Caminho 4" class="cls-1" d="M574.122,355.01l3.156,4.5h-3.248l-2.842-4.393h-.609v4.393h-2.713V346.8h5.2a3.979,3.979,0,0,1,3.128,1.227,4.506,4.506,0,0,1,.286,5.528A3.754,3.754,0,0,1,574.122,355.01Zm-1.181-5.832h-2.362v3.581h2.289a1.411,1.411,0,0,0,1.172-.554,1.955,1.955,0,0,0,.434-1.237,2.027,2.027,0,0,0-.415-1.227A1.318,1.318,0,0,0,572.94,349.178Z" transform="translate(-527.426 -346.649)"/>
        <path id="Caminho_5" data-name="Caminho 5" class="cls-1" d="M608.813,349.233V346.8h9.6v2.436h-3.433v10.281h-2.732V349.233Z" transform="translate(-557.596 -346.649)"/>
      </g>
      <g id="Grupo_2" data-name="Grupo 2" transform="translate(0 17.632)">
        <path id="Caminho_6" data-name="Caminho 6" class="cls-1" d="M414.236,426.5V413.783h8.047v2.381h-5.353v2.9h4.688v2.344h-4.688v2.713h5.518V426.5Z" transform="translate(-414.236 -413.635)"/>
        <path id="Caminho_7" data-name="Caminho 7" class="cls-1" d="M464.165,413.783V426.5h-2.418l-4.43-7.7v7.7h-2.695V413.783H457.1l4.356,7.6v-7.6Z" transform="translate(-443.992 -413.635)"/>
        <path id="Caminho_8" data-name="Caminho 8" class="cls-1" d="M502.232,426.5V413.783h8.047v2.381h-5.353v2.9h4.688v2.344h-4.688v2.713h5.518V426.5Z" transform="translate(-479.069 -413.635)"/>
        <path id="Caminho_9" data-name="Caminho 9" class="cls-1" d="M548.878,422l3.156,4.5h-3.249l-2.842-4.393h-.609V426.5h-2.713V413.783h5.2a3.979,3.979,0,0,1,3.128,1.227,4.505,4.505,0,0,1,.286,5.528A3.753,3.753,0,0,1,548.878,422Zm-1.181-5.832h-2.362v3.581h2.288a1.411,1.411,0,0,0,1.172-.554,1.955,1.955,0,0,0,.433-1.237,2.028,2.028,0,0,0-.415-1.227A1.318,1.318,0,0,0,547.7,416.164Z" transform="translate(-508.827 -413.635)"/>
        <path id="Caminho_10" data-name="Caminho 10" class="cls-1" d="M595.775,415.308l-1.993,1.716a3.589,3.589,0,0,0-2.787-1.292,3.548,3.548,0,0,0-2.7,1.181,4.226,4.226,0,0,0,.009,5.694,3.542,3.542,0,0,0,2.695,1.191,3.837,3.837,0,0,0,2.086-.618,1.872,1.872,0,0,0,1-1.579h-3.414v-2.2H597.2a7.107,7.107,0,0,1-1.671,5.158,6.048,6.048,0,0,1-4.531,1.708,6.492,6.492,0,0,1-6.515-6.516,6.326,6.326,0,0,1,1.892-4.623,6.256,6.256,0,0,1,4.623-1.91,6.538,6.538,0,0,1,2.685.554A5.912,5.912,0,0,1,595.775,415.308Z" transform="translate(-539.668 -413.222)"/>
        <path id="Caminho_11" data-name="Caminho 11" class="cls-1" d="M638.769,426.5h-2.75v-5.759l-4.909-6.958h3.212l3.064,4.762,3.1-4.762H643.7l-4.928,6.995Z" transform="translate(-574.023 -413.635)"/>
      </g>
    </g>
    <g id="Grupo_4" data-name="Grupo 4" transform="translate(0 35.133)">
      <path id="Caminho_12" data-name="Caminho 12" class="cls-1" d="M414.236,486.04v-6.333h1.351v5.147h2.371v1.186Z" transform="translate(-414.236 -479.707)"/>
      <path id="Caminho_13" data-name="Caminho 13" class="cls-1" d="M433.223,484.541h-2.188l-.561,1.5h-1.434l2.353-6.333h1.461l2.344,6.333h-1.415Zm-1.746-1.167h1.315l-.671-2.206Z" transform="translate(-425.144 -479.707)"/>
      <path id="Caminho_14" data-name="Caminho 14" class="cls-1" d="M459.5,481.471a1.258,1.258,0,0,1-.207.685,1.3,1.3,0,0,1-.657.5,1.506,1.506,0,0,1,.887.575,1.472,1.472,0,0,1,.308.868,1.888,1.888,0,0,1-.551,1.379,1.968,1.968,0,0,1-1.47.561h-2.721v-6.333h2.537a1.918,1.918,0,0,1,1.365.478A1.679,1.679,0,0,1,459.5,481.471Zm-3.06.736H457.5a.544.544,0,0,0,.423-.184.674.674,0,0,0,.165-.469.723.723,0,0,0-.151-.483.551.551,0,0,0-.446-.179h-1.048Zm1.268,1.112h-1.268v1.535h1.3a.6.6,0,0,0,.5-.234.875.875,0,0,0,.179-.547.8.8,0,0,0-.188-.524A.636.636,0,0,0,457.708,483.319Z" transform="translate(-444.335 -479.707)"/>
    </g>
  </g>
  <g id="Grupo_7" data-name="Grupo 7" transform="translate(0 0)">
    <g id="Grupo_6" data-name="Grupo 6" class="cls-2">
      <rect id="Retângulo_3" data-name="Retângulo 3" class="cls-1" width="72.315" height="76.754" transform="translate(-8.14 -0.944)"/>
    </g>
  </g>
</svg>
